<svg version="1.1" id="Layer_1" xmlns="http://www.w3.org/2000/svg" xmlns:xlink="http://www.w3.org/1999/xlink" x="0px" y="0px"
	 width="100%" viewBox="0 0 500 500" enable-background="new 0 0 500 500" xml:space="preserve">
<path fill="#00000000" opacity="1.000000" stroke="none" 
	d="
M279.000000,501.000000 
	C186.000015,501.000000 93.500046,501.000000 1.000050,501.000000 
	C1.000033,334.333405 1.000033,167.666794 1.000017,1.000139 
	C167.666565,1.000093 334.333130,1.000093 500.999756,1.000046 
	C500.999847,167.666519 500.999847,334.333038 500.999939,500.999786 
	C427.166656,501.000000 353.333344,501.000000 279.000000,501.000000 
M260.159241,341.644989 
	C271.380066,338.256317 282.165588,333.932495 291.120605,326.112183 
	C292.931152,324.531067 297.403595,323.086823 294.425110,319.741577 
	C291.612335,316.582397 289.477539,320.537994 287.513184,322.126343 
	C273.618286,333.361389 257.161072,337.820343 239.672791,341.061249 
	C240.060028,339.565186 240.217224,338.750763 240.480026,337.971954 
	C256.967896,289.108643 270.834045,239.510803 282.232422,189.218231 
	C284.692505,178.363800 285.903046,166.967453 290.095245,156.814178 
	C301.427979,129.366943 317.528687,104.737671 338.663239,83.690300 
	C342.854828,79.515999 348.029694,76.292809 352.913177,72.861702 
	C356.433716,70.388153 359.351044,71.794151 361.125153,75.288002 
	C362.389679,77.778290 363.760193,80.517960 363.919098,83.214943 
	C364.679993,96.129356 366.185944,109.145805 365.302307,121.979691 
	C363.652374,145.943359 355.228333,168.314713 346.297028,190.410492 
	C338.998810,208.466156 331.477936,226.412125 319.117737,241.785797 
	C313.812134,248.384872 307.671112,254.007202 299.209961,256.090637 
	C287.854279,258.886841 281.624695,256.734467 281.990326,243.495590 
	C282.037354,241.792953 280.535248,240.047531 279.750793,238.321915 
	C278.571716,240.043854 276.511993,241.688889 276.353851,243.499954 
	C275.158997,257.186676 282.102325,267.093994 295.217041,270.862885 
	C304.008362,273.389343 312.320007,272.020325 320.215515,267.528717 
	C331.840759,260.915375 340.082062,250.942245 347.325958,240.052048 
	C361.435455,218.840302 371.021881,195.493240 378.991119,171.453964 
	C386.264069,149.514999 391.697937,127.242126 388.002838,103.829521 
	C385.978271,91.001976 382.650574,78.697189 372.210266,69.741196 
	C365.081757,63.626144 359.073730,62.293411 351.278900,67.422119 
	C343.155670,72.766922 334.884888,78.667549 328.716644,86.032074 
	C317.752411,99.122787 308.329895,113.504326 298.249725,127.336617 
	C297.252350,128.705231 296.166534,130.009369 295.121765,131.343445 
	C297.423584,114.732681 300.512207,98.787148 303.481628,82.819443 
	C304.625946,76.665970 302.902557,71.263039 298.391083,66.881989 
	C296.242828,64.795845 293.910583,62.899128 291.660156,60.918354 
	C288.971313,58.551697 285.607758,56.937634 282.619202,59.122833 
	C280.408783,60.739052 278.519501,63.825775 277.993378,66.548431 
	C274.304199,85.639481 272.746124,105.324249 267.230957,123.843666 
	C254.753250,165.742874 238.857452,206.483582 219.528198,245.780731 
	C211.889969,261.309540 203.878799,276.665833 192.517807,289.918793 
	C191.211731,291.442322 189.210983,292.786530 187.289246,293.294769 
	C178.599197,295.593170 171.675735,291.967224 170.414200,282.725037 
	C168.804993,270.935699 167.457687,258.717590 168.783722,246.999588 
	C171.867920,219.744568 176.402725,192.643005 180.789246,165.550430 
	C183.094833,151.310333 182.685196,149.341003 170.945862,141.516983 
	C163.783417,136.743362 159.552246,138.466309 157.995468,146.905441 
	C155.098358,162.610367 151.914871,178.274017 149.507324,194.055038 
	C145.761719,218.606766 142.675613,243.256500 145.008057,268.190247 
	C146.054321,279.374939 148.157974,290.257629 155.037018,299.629425 
	C160.069138,306.485107 167.184570,310.348358 175.201401,309.331390 
	C186.629135,307.881744 193.281067,298.182007 200.964462,290.819611 
	C203.887863,288.018372 204.861313,283.278870 207.116150,279.667938 
	C225.254105,250.621490 238.438171,219.227676 250.987808,187.527176 
	C251.705139,185.715195 252.432922,183.907364 253.155838,182.097595 
	C254.061722,183.948425 254.008286,185.425720 253.667480,186.833435 
	C246.430573,216.726151 239.438126,246.681976 231.805237,276.473602 
	C226.326797,297.856232 219.903641,318.995483 214.096893,340.296448 
	C212.984787,344.375946 210.849747,346.098877 206.721893,346.759644 
	C200.004654,347.834961 193.318237,349.311859 186.759201,351.126648 
	C167.898560,356.345154 152.405075,366.515503 142.651688,383.822479 
	C132.471085,401.887482 139.014999,423.291016 156.768555,433.363708 
	C171.886261,441.940948 199.880768,437.479095 208.363251,419.519928 
	C211.342010,413.213287 214.891052,407.139130 217.411118,400.659882 
	C223.847992,384.110168 229.919296,367.416473 235.964661,350.718048 
	C236.986633,347.895203 238.369888,346.517761 241.413406,345.973450 
	C247.456741,344.892670 253.404388,343.276733 260.159241,341.644989 
z"/>
<path fill="#5271FF" opacity="1.000000" stroke="none" 
	d="
M259.775391,341.763489 
	C253.404388,343.276733 247.456741,344.892670 241.413406,345.973450 
	C238.369888,346.517761 236.986633,347.895203 235.964661,350.718048 
	C229.919296,367.416473 223.847992,384.110168 217.411118,400.659882 
	C214.891052,407.139130 211.342010,413.213287 208.363251,419.519928 
	C199.880768,437.479095 171.886261,441.940948 156.768555,433.363708 
	C139.014999,423.291016 132.471085,401.887482 142.651688,383.822479 
	C152.405075,366.515503 167.898560,356.345154 186.759201,351.126648 
	C193.318237,349.311859 200.004654,347.834961 206.721893,346.759644 
	C210.849747,346.098877 212.984787,344.375946 214.096893,340.296448 
	C219.903641,318.995483 226.326797,297.856232 231.805237,276.473602 
	C239.438126,246.681976 246.430573,216.726151 253.667480,186.833435 
	C254.008286,185.425720 254.061722,183.948425 253.155838,182.097595 
	C252.432922,183.907364 251.705139,185.715195 250.987808,187.527176 
	C238.438171,219.227676 225.254105,250.621490 207.116150,279.667938 
	C204.861313,283.278870 203.887863,288.018372 200.964462,290.819611 
	C193.281067,298.182007 186.629135,307.881744 175.201401,309.331390 
	C167.184570,310.348358 160.069138,306.485107 155.037018,299.629425 
	C148.157974,290.257629 146.054321,279.374939 145.008057,268.190247 
	C142.675613,243.256500 145.761719,218.606766 149.507324,194.055038 
	C151.914871,178.274017 155.098358,162.610367 157.995468,146.905441 
	C159.552246,138.466309 163.783417,136.743362 170.945862,141.516983 
	C182.685196,149.341003 183.094833,151.310333 180.789246,165.550430 
	C176.402725,192.643005 171.867920,219.744568 168.783722,246.999588 
	C167.457687,258.717590 168.804993,270.935699 170.414200,282.725037 
	C171.675735,291.967224 178.599197,295.593170 187.289246,293.294769 
	C189.210983,292.786530 191.211731,291.442322 192.517807,289.918793 
	C203.878799,276.665833 211.889969,261.309540 219.528198,245.780731 
	C238.857452,206.483582 254.753250,165.742874 267.230957,123.843666 
	C272.746124,105.324249 274.304199,85.639481 277.993378,66.548431 
	C278.519501,63.825775 280.408783,60.739052 282.619202,59.122833 
	C285.607758,56.937634 288.971313,58.551697 291.660156,60.918354 
	C293.910583,62.899128 296.242828,64.795845 298.391083,66.881989 
	C302.902557,71.263039 304.625946,76.665970 303.481628,82.819443 
	C300.512207,98.787148 297.423584,114.732681 295.121765,131.343445 
	C296.166534,130.009369 297.252350,128.705231 298.249725,127.336617 
	C308.329895,113.504326 317.752411,99.122787 328.716644,86.032074 
	C334.884888,78.667549 343.155670,72.766922 351.278900,67.422119 
	C359.073730,62.293411 365.081757,63.626144 372.210266,69.741196 
	C382.650574,78.697189 385.978271,91.001976 388.002838,103.829521 
	C391.697937,127.242126 386.264069,149.514999 378.991119,171.453964 
	C371.021881,195.493240 361.435455,218.840302 347.325958,240.052048 
	C340.082062,250.942245 331.840759,260.915375 320.215515,267.528717 
	C312.320007,272.020325 304.008362,273.389343 295.217041,270.862885 
	C282.102325,267.093994 275.158997,257.186676 276.353851,243.499954 
	C276.511993,241.688889 278.571716,240.043854 279.750793,238.321930 
	C280.535248,240.047531 282.037354,241.792953 281.990326,243.495590 
	C281.624695,256.734467 287.854279,258.886841 299.209961,256.090637 
	C307.671112,254.007202 313.812134,248.384872 319.117737,241.785797 
	C331.477936,226.412125 338.998810,208.466156 346.297028,190.410492 
	C355.228333,168.314713 363.652374,145.943359 365.302307,121.979691 
	C366.185944,109.145805 364.679993,96.129356 363.919098,83.214943 
	C363.760193,80.517960 362.389679,77.778290 361.125153,75.288002 
	C359.351044,71.794151 356.433716,70.388153 352.913177,72.861702 
	C348.029694,76.292809 342.854828,79.515999 338.663239,83.690300 
	C317.528687,104.737671 301.427979,129.366943 290.095245,156.814178 
	C285.903046,166.967453 284.692505,178.363800 282.232422,189.218231 
	C270.834045,239.510803 256.967896,289.108643 240.480026,337.971954 
	C240.217224,338.750763 240.060028,339.565186 239.672791,341.061249 
	C257.161072,337.820343 273.618286,333.361389 287.513184,322.126343 
	C289.477539,320.537994 291.612335,316.582397 294.425110,319.741577 
	C297.403595,323.086823 292.931152,324.531067 291.120605,326.112183 
	C282.165588,333.932495 271.380066,338.256317 259.775391,341.763489 
M202.689301,376.953491 
	C204.445755,369.127869 204.721237,360.903534 208.952728,353.738678 
	C209.172867,353.365875 209.062408,352.797821 209.160950,351.716431 
	C205.075989,352.525513 201.202255,353.260193 197.342667,354.062836 
	C180.849915,357.492706 166.117737,364.255524 154.571915,376.919250 
	C147.221451,384.981384 142.476654,394.236267 144.057404,405.422424 
	C146.244095,420.896454 154.797638,428.691895 171.084396,424.087738 
	C179.749695,421.638153 186.098007,416.045288 189.779007,408.017517 
	C194.335876,398.079620 198.175049,387.812622 202.689301,376.953491 
z"/>
<path fill="#00000000" opacity="1.000000" stroke="none" 
	d="
M202.506790,377.320679 
	C198.175049,387.812622 194.335876,398.079620 189.779007,408.017517 
	C186.098007,416.045288 179.749695,421.638153 171.084396,424.087738 
	C154.797638,428.691895 146.244095,420.896454 144.057404,405.422424 
	C142.476654,394.236267 147.221451,384.981384 154.571915,376.919250 
	C166.117737,364.255524 180.849915,357.492706 197.342667,354.062836 
	C201.202255,353.260193 205.075989,352.525513 209.160950,351.716431 
	C209.062408,352.797821 209.172867,353.365875 208.952728,353.738678 
	C204.721237,360.903534 204.445755,369.127869 202.506790,377.320679 
z"/>
</svg>
